<svg width="28" height="27" viewBox="0 0 28 27" fill="none" xmlns="http://www.w3.org/2000/svg">
<g clip-path="url(#clip0_2268_55899)">
<path d="M11.5629 20.205L10.7785 21.6955H12.5856C12.8436 21.6955 12.9067 21.9407 12.7174 22.1237L8.77025 26.0056C8.68798 26.1023 8.58972 26.1271 8.51062 26.092C8.42431 26.0584 8.39794 25.9673 8.45068 25.8443L9.59638 23.0857H8.08417C7.86128 23.0857 7.76777 22.9507 7.85566 22.7398L9.00122 20.1363C9.08032 19.9574 9.16101 19.8695 9.40868 19.8695H11.3943C11.5893 19.8695 11.6684 20.0133 11.5629 20.205Z" fill="black" fill-opacity="0.2"/>
<path d="M23.2478 13.7637L24.5371 15.0587C24.8453 15.3637 24.8453 15.8738 24.5387 16.1788C24.2337 16.4853 23.734 16.4838 23.4258 16.1756L22.1221 14.875C21.8139 14.5684 21.8211 14.0655 22.1205 13.7606C22.4182 13.454 22.934 13.45 23.2478 13.7637ZM22.4511 9.67471C22.4511 11.2282 21.6483 12.5928 20.4326 13.3738C20.1065 10.7835 18.0402 8.85917 15.3206 8.56114C15.0297 8.11031 14.6961 7.69794 14.3223 7.33244C15.0978 6.09256 16.476 5.27104 18.0474 5.27104C20.481 5.27104 22.4511 7.2412 22.4511 9.67471ZM27.2199 9.67313C27.2199 10.1122 26.8646 10.4675 26.4312 10.4675H24.603C24.1783 10.4675 23.8071 10.1122 23.8071 9.67313C23.8071 9.23403 24.1783 8.88194 24.603 8.88194H26.4312C26.8646 8.88194 27.2199 9.23403 27.2199 9.67313ZM24.5387 3.17784C24.8453 3.4844 24.8453 3.99293 24.5371 4.2995L23.2478 5.58727C22.934 5.89946 22.4182 5.897 22.1205 5.59044C21.8211 5.28387 21.8139 4.78097 22.1221 4.47599L23.4258 3.18259C23.734 2.86723 24.2337 2.87286 24.5387 3.17784ZM12.6474 3.17538L13.9456 4.47599C14.2522 4.78097 14.2449 5.28387 13.9472 5.59044C13.6478 5.897 13.1321 5.89946 12.8183 5.58727L11.5362 4.2995C11.2208 3.98573 11.228 3.47719 11.5346 3.17063C11.8411 2.86565 12.3409 2.86723 12.6474 3.17538ZM18.829 1.2678V3.08714C18.829 3.51903 18.4753 3.88307 18.0362 3.88307C17.5987 3.88307 17.245 3.51903 17.245 3.08714V1.2678C17.245 0.834323 17.5987 0.471863 18.0362 0.471863C18.4753 0.471863 18.829 0.834323 18.829 1.2678Z" fill="#F7C500"/>
<path d="M5.07517 18.5017H14.8254C17.3301 18.5017 19.2668 16.5883 19.2668 14.1095C19.2668 11.6181 17.2744 9.74886 14.6006 9.73761C13.5991 7.82897 11.7963 6.61292 9.52225 6.61292C6.60095 6.61292 4.1372 8.85466 3.87669 11.7906C2.35566 12.2341 1.37708 13.5234 1.37708 15.1083C1.37708 17.1213 2.88142 18.5017 5.07517 18.5017Z" fill="white"/>
<path d="M9.52258 7.11292C11.5961 7.11303 13.2363 8.21307 14.1583 9.97034C14.2444 10.134 14.4138 10.2371 14.5988 10.2379C17.0299 10.2483 18.7665 11.9251 18.7667 14.109C18.7667 16.3063 17.0593 18.0016 14.8253 18.0016H5.07532C4.0832 18.0016 3.28538 17.6903 2.74133 17.191C2.20092 16.695 1.87708 15.9834 1.87708 15.108C1.87717 13.7481 2.70661 12.6521 4.01672 12.2701C4.21436 12.2124 4.35692 12.0397 4.37512 11.8346C4.61282 9.15691 6.86023 7.11292 9.52258 7.11292Z" stroke="black" stroke-opacity="0.2" stroke-linejoin="round"/>
</g>
<defs>
<clipPath id="clip0_2268_55899">
<rect width="27.2199" height="26.1071" fill="white"/>
</clipPath>
</defs>
</svg>
