<svg width="14" height="20" viewBox="0 0 14 20" fill="none" xmlns="http://www.w3.org/2000/svg">
<g clip-path="url(#clip0_2268_55916)">
<path d="M11.3997 3.41862H13.3307C13.6541 3.41862 13.873 3.1734 13.873 2.88512C13.873 2.59526 13.6541 2.35004 13.3307 2.35004H11.3997C11.0763 2.35004 10.8575 2.59526 10.8575 2.88512C10.8575 3.1734 11.0763 3.41862 11.3997 3.41862ZM11.3997 5.86145H13.3307C13.6541 5.86145 13.873 5.61623 13.873 5.32637C13.873 5.03651 13.6541 4.79288 13.3307 4.79288H11.3997C11.0763 4.79288 10.8575 5.03651 10.8575 5.32637C10.8575 5.61623 11.0763 5.86145 11.3997 5.86145ZM11.3997 8.31219H13.3307C13.6541 8.31219 13.873 8.06698 13.873 7.77711C13.873 7.48883 13.6541 7.23641 13.3307 7.23641H11.3997C11.0763 7.23641 10.8575 7.48883 10.8575 7.77711C10.8575 8.06698 11.0763 8.31219 11.3997 8.31219ZM11.3997 10.7629H13.3307C13.6541 10.7629 13.873 10.5177 13.873 10.2278C13.873 9.93237 13.6541 9.68716 13.3307 9.68716H11.3997C11.0763 9.68716 10.8575 9.93237 10.8575 10.2278C10.8575 10.5177 11.0763 10.7629 11.3997 10.7629Z" fill="black" fill-opacity="0.2"/>
<path d="M6.76229 19.7998C9.40586 19.7998 11.5471 17.6672 11.5471 15.0221C11.5471 13.6561 10.999 12.465 9.94744 11.5C9.76603 11.333 9.72367 11.2322 9.72525 10.9749V3.22101C9.72525 1.30552 8.52203 0 6.76229 0C4.98023 0 3.77296 1.30552 3.77296 3.22101V10.9749C3.77296 11.2322 3.73939 11.3346 3.55078 11.5C2.50013 12.4571 1.94958 13.6561 1.94958 15.0221C1.94958 17.6672 4.09956 19.7998 6.76229 19.7998ZM6.76229 18.2976C4.93645 18.2976 3.46937 16.8145 3.46937 15.0031C3.46937 13.8902 3.9911 12.9161 4.918 12.2968C5.18887 12.1154 5.29275 11.9547 5.29275 11.5959V3.27532C5.29275 2.22538 5.8913 1.51821 6.76229 1.51821C7.61255 1.51821 8.21107 2.22538 8.21107 3.27532V11.5959C8.21107 11.9547 8.31655 12.1154 8.58584 12.2968C9.51273 12.9161 10.036 13.8902 10.036 15.0031C10.036 16.8145 8.56177 18.2976 6.76229 18.2976Z" fill="black" fill-opacity="0.2"/>
<path d="M6.75189 17.1111C7.91855 17.1111 8.85828 16.1713 8.85828 14.9959C8.85828 14.1792 8.39721 13.5088 7.72678 13.1444C7.44869 12.995 7.35201 12.8895 7.35201 12.4636V7.77881C7.35201 7.35536 7.08272 7.08606 6.75189 7.08606C6.41545 7.08606 6.15177 7.35536 6.15177 7.77881V12.4636C6.15177 12.8895 6.05668 12.995 5.77701 13.1444C5.10816 13.5088 4.64709 14.1792 4.64709 14.9959C4.64709 16.1713 5.58681 17.1111 6.75189 17.1111Z" fill="black" fill-opacity="0.2"/>
</g>
<defs>
<clipPath id="clip0_2268_55916">
<rect width="13.873" height="19.8214" fill="white"/>
</clipPath>
</defs>
</svg>
